Coordinates
version=1
nRows=29
nColumns=24
inDegrees=yes

Units are S.I. units (second, meters, Newtons, ...)
Angles are in degrees.

endheader
time	pelvis_tilt	pelvis_list	pelvis_rotation	pelvis_tx	pelvis_ty	pelvis_tz	hip_flexion_r	hip_adduction_r	hip_rotation_r	knee_angle_r	ankle_angle_r	subtalar_angle_r	mtp_angle_r	hip_flexion_l	hip_adduction_l	hip_rotation_l	knee_angle_l	ankle_angle_l	subtalar_angle_l	mtp_angle_l	lumbar_extension	lumbar_bending	lumbar_rotation
      4.29000000	     -8.61371734	    -17.16692698	      9.63220211	     -1.01577284	     -0.05865080	      0.48093894	     32.47662986	     17.92913037	     -6.95217349	    -28.83961830	      2.99529245	      3.43070579	      6.99890888	     17.75338133	    -20.31610847	      7.79093401	    -65.39609693	    -33.71556240	     19.22441658	     29.78053276	      6.52903624	     18.44875961	    -13.18352608
      4.29500000	     -8.57889132	    -17.22746265	      9.50173862	     -1.00812112	     -0.05742017	      0.48146727	     31.63790363	     18.28205106	     -6.65233964	    -28.36362135	      3.32389139	      3.45787402	      7.02181029	     18.73492800	    -20.13919372	      8.03226720	    -66.31419513	    -32.58916275	     18.46165974	     30.29293515	      6.53385225	     18.53119014	    -12.83428453
      4.30000000	     -8.59226751	    -17.29212778	      9.33683619	     -1.00050684	     -0.05623185	      0.48208826	     30.84351417	     18.66448282	     -6.26413098	    -27.87693397	      3.55416684	      3.28186125	      6.82803577	     19.77316390	    -19.96189022	      8.26677645	    -67.20230785	    -31.27616708	     17.92196223	     30.57772020	      6.57592870	     18.59917649	    -12.41466981
      4.30500000	     -8.54476386	    -17.23826686	      9.21426649	     -0.99287897	     -0.05488126	      0.48255683	     29.94697930	     18.90696531	     -5.86011420	    -27.39387396	      3.85577534	      3.26843459	      6.81059465	     20.68450459	    -19.64074409	      8.45496945	    -67.93148177	    -30.11325913	     17.28094798	     31.05606119	      6.55593865	     18.55202689	    -12.13789061
      4.31000000	     -8.51670588	    -17.19081407	      8.97582743	     -0.98525444	     -0.05353115	      0.48321746	     29.04129455	     19.24776104	     -5.20294681	    -26.89237020	      3.98544924	      2.93124205	      6.43352541	     21.57039518	    -19.37627991	      8.54321944	    -68.61991339	    -28.71744339	     17.00839547	     31.27716190	      6.51692114	     18.52896525	    -11.59019769
      4.31500000	     -8.46769575	    -17.08125651	      8.79202056	     -0.97768080	     -0.05213811	      0.48375693	     28.10559187	     19.48538316	     -4.58629421	    -26.39915422	      4.17012081	      2.67279223	      6.10628117	     22.42640884	    -19.01775061	      8.62989718	    -69.20997146	    -27.45457428	     16.62679077	     31.51435092	      6.46174025	     18.43499912	    -11.18411006
      4.32000000	     -8.43099862	    -16.93435348	      8.58272106	     -0.97016601	     -0.05075185	      0.48429589	     27.17705665	     19.68174442	     -3.94249221	    -25.91944325	      4.32754486	      2.40426932	      5.77220515	     23.26785667	    -18.62192949	      8.66534334	    -69.71548433	    -26.26200179	     16.26858108	     31.78648097	      6.40175395	     18.30758471	    -10.73706651
      4.32500000	     -8.40095655	    -16.75996226	      8.35871171	     -0.96269154	     -0.04937638	      0.48482985	     26.24311344	     19.84652648	     -3.26031328	    -25.43460963	      4.46724881	      2.10760839	      5.42891668	     24.09421945	    -18.19861385	      8.66331956	    -70.13917880	    -25.14429807	     15.92783054	     32.05852492	      6.33999282	     18.15444362	    -10.26807284
      4.33000000	     -8.37343888	    -16.56265004	      8.11483634	     -0.95528449	     -0.04802309	      0.48536037	     25.30879712	     19.98440276	     -2.54633963	    -24.95720685	      4.57747397	      1.78367977	      5.05117619	     24.90203513	    -17.75618577	      8.61804022	    -70.48875634	    -24.07701354	     15.59541060	     32.31738501	      6.26377113	     17.98310352	     -9.77940806
      4.33500000	     -8.36009224	    -16.34176175	      7.85323189	     -0.94790050	     -0.04669746	      0.48587881	     24.37974879	     20.08583862	     -1.82508838	    -24.47703472	      4.68546435	      1.46577812	      4.67984720	     25.69925708	    -17.29090363	      8.53397503	    -70.75655552	    -23.08228489	     15.26563660	     32.57281645	      6.19742781	     17.79066769	     -9.26805520
      4.34000000	     -8.35499206	    -16.10625640	      7.57517974	     -0.94056460	     -0.04541506	      0.48639297	     23.45825192	     20.16094601	     -1.09384129	    -24.00174356	      4.78194120	      1.15211859	      4.30126425	     26.48497527	    -16.81444297	      8.41609841	    -70.94995060	    -22.14054075	     14.92611442	     32.81765733	      6.13054385	     17.58718534	     -8.74219172
      4.34500000	     -8.34213300	    -15.87612982	      7.29023001	     -0.93331972	     -0.04418107	      0.48688554	     22.53861306	     20.22953738	     -0.34978101	    -23.53688303	      4.85855409	      0.84130371	      3.86887366	     27.25836943	    -16.34883831	      8.27595299	    -71.08056601	    -21.23669062	     14.56636111	     33.03641076	      6.04074036	     17.40050148	     -8.21288890
      4.35000000	     -8.37042096	    -15.60840380	      6.97969759	     -0.92603386	     -0.04300854	      0.48738662	     21.65177722	     20.23395903	      0.33277544	    -23.07103541	      4.97976831	      0.59679246	      3.53457309	     28.03319987	    -15.84600945	      8.09624424	    -71.11995037	    -20.40425995	     14.21485934	     33.25128152	      6.00264302	     17.16742777	     -7.65575011
      4.35500000	     -8.39371083	    -15.35018010	      6.66254431	     -0.91881460	     -0.04188511	      0.48785243	     20.76840688	     20.23228210	      1.01656047	    -22.60968046	      5.07535170	      0.36921342	      3.18687662	     28.79533537	    -15.36078500	      7.89323227	    -71.09244952	    -19.60846183	     13.83935167	     33.43025644	      5.95173367	     16.95617959	     -7.09439638
      4.36000000	     -8.42396839	    -15.09222208	      6.33947782	     -0.91163594	     -0.04083147	      0.48830668	     19.90256168	     20.21032799	      1.66639441	    -22.15746222	      5.18053563	      0.18620691	      2.86164303	     29.55228391	    -14.88039146	      7.67589645	    -70.99598787	    -18.84684854	     13.45486915	     33.57323462	      5.90562956	     16.75048830	     -6.52940342
      4.36500000	     -8.42187463	    -14.87290769	      6.02245298	     -0.90448966	     -0.03981795	      0.48873371	     19.00389234	     20.22158271	      2.34156366	    -21.69355828	      5.27477382	     -0.00940623	      2.38677317	     30.27507397	    -14.45073904	      7.45944122	    -70.84002567	    -18.10322723	     13.04716656	     33.61979369	      5.82466231	     16.59497821	     -5.97079814
      4.37000000	     -8.49343001	    -14.59924895	      5.67398903	     -0.89742029	     -0.03892042	      0.48915701	     18.21897159	     20.13262696	      2.86528457	    -21.28895964	      5.41717938	     -0.03781600	      2.18226988	     31.04121790	    -13.96167680	      7.20773072	    -70.60056839	    -17.41124019	     12.67493645	     33.70149801	      5.80672003	     16.37854132	     -5.37827676
      4.37500000	     -8.54401846	    -14.34887460	      5.32482195	     -0.89036303	     -0.03806208	      0.48955193	     17.41149805	     20.05728530	      3.40333185	    -20.87151501	      5.53831283	     -0.06387734	      1.96502132	     31.77445088	    -13.51267738	      6.94398201	    -70.29166240	    -16.76110205	     12.27422986	     33.70379625	      5.76870386	     16.19744231	     -4.79444232
      4.38000000	     -8.60728287	    -14.12057821	      4.99747673	     -0.88328186	     -0.03728757	      0.48988852	     16.61956699	     19.97542058	      3.90329260	    -20.43619689	      5.67961284	     -0.01498387	      1.82534364	     32.52022141	    -13.08206712	      6.70335378	    -69.91688201	    -16.16701876	     11.90697891	     33.68307752	      5.77107904	     16.04249418	     -4.28562331
      4.38500000	     -8.65737610	    -13.89119638	      4.63150258	     -0.87631579	     -0.03656884	      0.49026319	     15.84427074	     19.89101503	      4.38043260	    -20.05044054	      5.80385100	      0.03830095	      1.67530595	     33.22879344	    -12.68690392	      6.41054517	    -69.47454932	    -15.58736632	     11.51278189	     33.58192045	      5.71904412	     15.89503564	     -3.66049002
      4.39000000	     -8.70357285	    -13.67507353	      4.28000568	     -0.86936638	     -0.03590982	      0.49060024	     15.07652184	     19.80020214	      4.81862467	    -19.66740223	      5.92967489	      0.12436128	      1.54353936	     33.92519671	    -12.30966395	      6.12752380	    -68.96668134	    -15.04533235	     11.13668858	     33.42047739	      5.67089850	     15.76570828	     -3.07390733
      4.39500000	     -8.73200811	    -13.47151543	      3.92203023	     -0.86247988	     -0.03529212	      0.49092911	     14.31693245	     19.71102620	      5.20799576	    -19.31782505	      6.02453639	      0.23651567	      1.39022539	     34.58689026	    -11.96737268	      5.82488978	    -68.39237072	    -14.50777292	     10.75780824	     33.15594743	      5.58807883	     15.65396802	     -2.45479020
      4.40000000	     -8.79259740	    -13.28303988	      3.58978139	     -0.85557817	     -0.03479676	      0.49118283	     13.59225458	     19.61055683	      5.59815604	    -18.95367258	      6.18071917	      0.40374485	      1.34379024	     35.28290475	    -11.63061456	      5.56036410	    -67.75786596	    -14.04913572	     10.45389530	     32.93970905	      5.56448714	     15.56140963	     -1.92481767
      4.40500000	     -8.84112482	    -13.10085417	      3.23910291	     -0.84875823	     -0.03434588	      0.49146050	     12.88338624	     19.51114044	      5.96154785	    -18.63000980	      6.30721056	      0.59612387	      1.31649074	     35.94414470	    -11.33073720	      5.26673110	    -67.05237606	    -13.60875953	     10.13356130	     32.66202738	      5.50455256	     15.47846157	     -1.32780684
      4.41000000	     -8.88719593	    -12.92764500	      2.90047311	     -0.84194658	     -0.03395021	      0.49169558	     12.18408411	     19.40511867	      6.29612602	    -18.31476849	      6.42137556	      0.80036569	      1.31018910	     36.58799048	    -11.05182948	      4.97155875	    -66.28157672	    -13.20063344	      9.84953853	     32.34143590	      5.44373138	     15.40265693	     -0.76893862
      4.41500000	     -8.92882328	    -12.75896760	      2.55332296	     -0.83518943	     -0.03359839	      0.49187101	     11.50045127	     19.29130303	      6.62174804	    -18.02797905	      6.52099063	      1.02221443	      1.32562230	     37.20288449	    -10.79423406	      4.66103493	    -65.44088460	    -12.80493203	      9.59567768	     31.96904454	      5.37021152	     15.35316446	     -0.20698568
      4.42000000	     -8.97893207	    -12.60898335	      2.23989410	     -0.82845357	     -0.03335688	      0.49205305	     10.83947730	     19.18604422	      6.94056000	    -17.74416106	      6.64102105	      1.24154539	      1.37514545	     37.82594451	    -10.55456637	      4.38686659	    -64.54494272	    -12.43935535	      9.39411791	     31.61701330	      5.30953995	     15.29852839	      0.31859251
      4.42500000	     -9.01843774	    -12.45349221	      1.89684019	     -0.82175337	     -0.03311711	      0.49220896	     10.18786432	     19.06769485	      7.24425265	    -17.49943742	      6.70827235	      1.48446837	      1.43491964	     38.39641630	    -10.34849358	      4.05743858	    -63.57041445	    -12.06666299	      9.22167349	     31.18283587	      5.21957929	     15.25765762	      0.86381295
      4.43000000	     -9.03811074	    -12.32547624	      1.59050069	     -0.81507109	     -0.03297030	      0.49229518	      9.52697208	     18.96446504	      7.51837792	    -17.25307229	      6.80654675	      1.69758980	      1.52701183	     38.94124739	    -10.16493802	      3.75616649	    -62.55209718	    -11.66348941	      9.10687163	     30.66605883	      5.11492110	     15.24939077	      1.39698008
